<svg width="18" height="17" viewBox="0 0 18 17" fill="none" xmlns="http://www.w3.org/2000/svg">
<g clip-path="url(#clip0_49_6)">
<path d="M9.77186 0.513905L11.8798 5.39442L17.2382 5.8693V5.86785C17.4652 5.88667 17.6644 5.9967 17.8021 6.15885C17.8725 6.24108 17.9258 6.33621 17.959 6.43881C17.9922 6.54141 18.0046 6.64946 17.9955 6.75679V6.75824C17.9783 6.95428 17.8904 7.13769 17.7479 7.2751C17.7304 7.29393 17.7113 7.3113 17.6908 7.32723L13.6596 10.8063L14.8593 15.9937C14.9105 16.2152 14.8666 16.4367 14.7523 16.6148C14.6945 16.7064 14.6189 16.7859 14.5299 16.8485C14.4409 16.9111 14.3403 16.9557 14.2338 16.9797L14.2133 16.984C14.1093 17.0043 14.0038 17.0057 13.9027 16.9869V16.9884C13.7929 16.9695 13.6874 16.9275 13.5936 16.8667L13.5863 16.8624L9.00135 14.1536L4.37977 16.8841C4.28607 16.9398 4.18216 16.9767 4.07399 16.9926C3.96583 17.0085 3.85556 17.0031 3.74951 16.9767C3.64346 16.9504 3.54374 16.9035 3.45606 16.839C3.36839 16.7744 3.29451 16.6933 3.23865 16.6003C3.18299 16.5077 3.14783 16.4078 3.13172 16.3079C3.11707 16.2167 3.11854 16.124 3.13465 16.0343C3.13758 16.0154 3.14051 15.9952 3.14637 15.9763L4.34168 10.8077C2.98817 9.63935 1.59656 8.47677 0.265021 7.28958L0.253303 7.278C0.104621 7.13677 0.01475 6.9457 0.00134941 6.74232C-0.013299 6.53239 0.0540838 6.31811 0.206428 6.14582L0.224006 6.127L0.235724 6.11542C0.381408 5.9665 0.578686 5.87754 0.787971 5.8664H0.79676L6.12 5.39442L8.23524 0.500875C8.32459 0.292392 8.49305 0.138926 8.6908 0.0592976C8.88856 -0.0188833 9.11561 -0.0232267 9.32654 0.0650888C9.42762 0.107075 9.51697 0.167882 9.59022 0.24172C9.66785 0.318453 9.72791 0.408216 9.76893 0.505218L9.77186 0.513905ZM11.2645 5.8997L9.05994 0.797673C9.05696 0.790115 9.05248 0.783223 9.04676 0.777404C9.04087 0.771752 9.0339 0.767321 9.02625 0.764373C9.01819 0.760794 9.00945 0.758943 9.00062 0.758943C8.99178 0.758943 8.98304 0.760794 8.97498 0.764373C8.96033 0.770165 8.94715 0.781747 8.93983 0.79912L6.73524 5.8997C6.68104 6.02421 6.56238 6.11542 6.4159 6.12845L0.864142 6.6207C0.852424 6.62215 0.840705 6.6236 0.828986 6.6236C0.820197 6.6236 0.809943 6.62649 0.802619 6.63084C0.798224 6.63228 0.795295 6.63518 0.792365 6.63807L0.777717 6.65545C0.770392 6.66703 0.767463 6.68006 0.768928 6.69309C0.770392 6.70612 0.774787 6.71915 0.782111 6.72929C0.7909 6.73653 0.801154 6.74521 0.809943 6.7539L5.00379 10.3734C5.11658 10.4617 5.17518 10.6079 5.14149 10.7571L3.8949 16.1457L3.89051 16.166C3.88904 16.1747 3.88758 16.1834 3.88904 16.1906C3.89124 16.203 3.89696 16.2144 3.90552 16.2237C3.91408 16.2329 3.92514 16.2395 3.93738 16.2427C3.95496 16.2471 3.97254 16.2456 3.98719 16.237L8.7992 13.3935C8.91639 13.3211 9.0702 13.3153 9.19764 13.3906L13.9789 16.2152C13.9906 16.221 14.0023 16.2283 14.014 16.2355C14.0214 16.2398 14.0287 16.2427 14.0375 16.2442V16.2456C14.0433 16.2471 14.0507 16.2471 14.058 16.2456L14.0638 16.2442C14.0814 16.2398 14.0961 16.2297 14.1049 16.2152C14.1137 16.2022 14.1166 16.1848 14.1122 16.1675L12.8612 10.7542C12.8456 10.6875 12.8487 10.6179 12.8701 10.5529C12.8916 10.4878 12.9305 10.4298 12.9828 10.385L17.2103 6.73652C17.2162 6.73218 17.2206 6.72494 17.225 6.7177C17.2279 6.71191 17.2294 6.70323 17.2308 6.69309C17.2323 6.67613 17.2276 6.6592 17.2177 6.64531C17.2061 6.63309 17.1905 6.62538 17.1737 6.6236V6.62215C17.1722 6.62215 17.1693 6.62215 17.1693 6.6207L11.6073 6.127C11.4608 6.12556 11.3246 6.04014 11.2645 5.8997Z" fill="#FA6C6C"/>
<path d="M9.68714 1.45361L11.5609 5.75949L16.3242 6.17846V6.17718C16.5261 6.19378 16.7032 6.29086 16.8256 6.43392C16.8881 6.50647 17.4705 6.40948 17.5 6.5C17.5295 6.59052 17.0055 6.86676 16.9974 6.96146V6.96274C16.9821 7.13569 16.9041 7.29751 16.7774 7.41874C16.7618 7.43535 16.7448 7.45068 16.7266 7.46473L13.1431 10.5342L14.2095 15.1108C14.2551 15.3063 14.216 15.5017 14.1145 15.6588C14.0631 15.7396 14.2886 16.269 14.2095 16.3242C14.1304 16.3795 13.3465 16.5193 13.5 16C13.4075 16.0179 13.4491 16.0037 13.3592 15.9871V15.9884C13.2616 15.9718 13.1678 15.9347 13.0845 15.8811L13.078 15.8772L9.0022 13.4874L4.8939 15.8964C4.81061 15.9456 4.71824 15.9781 4.62209 15.9921C4.52594 16.0062 4.59427 16.0233 4.5 16C4.40573 15.9767 3.95745 16.4518 3.87952 16.3948C3.80159 16.3378 3.92917 15.728 3.87952 15.646C3.83004 15.5643 3.79879 15.4762 3.78446 15.388C3.77144 15.3076 3.77274 15.2258 3.78707 15.1466C3.78967 15.13 3.79228 15.1121 3.79748 15.0955L4.86004 10.5354C3.65685 9.50463 2.4198 8.47893 1.23614 7.43152L1.22573 7.4213C1.09356 7.2967 0.645551 7.11279 0.633639 6.93336C0.620618 6.74815 0.680517 6.5591 0.815941 6.4071L1.19968 6.40582L1.2101 6.3956C1.3396 6.26421 1.51497 6.18573 1.70101 6.1759H1.70883L6.44086 5.75949L8.32118 1.44211C8.40061 1.25817 8.55036 1.12278 8.72615 1.05252C8.90194 0.983548 8.97876 0.1641 9.29128 1.05763C9.38113 1.09468 9.46056 1.14832 9.52567 1.21347C9.59468 1.28117 9.64807 1.36036 9.68453 1.44594L9.68714 1.45361ZM11.014 6.20528L9.05429 1.70396C9.05164 1.69729 9.04765 1.69121 9.04257 1.68608C9.03734 1.68109 9.03114 1.67718 9.02434 1.67458C9.01717 1.67143 9.00941 1.66979 9.00155 1.66979C8.9937 1.66979 8.98593 1.67143 8.97876 1.67458C8.96574 1.67969 8.95402 1.68991 8.94751 1.70524L6.98777 6.20528C6.93959 6.31513 6.83411 6.3956 6.7039 6.4071L1.76872 6.84139C1.75831 6.84267 1.74789 6.84395 1.73747 6.84395C1.72966 6.84395 1.72054 6.8465 1.71403 6.85033C1.71013 6.85161 1.70752 6.85416 1.70492 6.85672L1.6919 6.87205C1.68539 6.88227 1.68278 6.89376 1.68408 6.90526C1.68539 6.91675 1.68929 6.92825 1.6958 6.93719C1.70362 6.94358 1.71273 6.95124 1.72054 6.95891L5.44862 10.1522C5.54888 10.2302 5.60097 10.3592 5.57102 10.4907L4.46289 15.245L4.45898 15.2628C4.45768 15.2705 4.45638 15.2782 4.45768 15.2846C4.45963 15.2954 4.46471 15.3056 4.47232 15.3137C4.47994 15.3218 4.48976 15.3277 4.50065 15.3305C4.51627 15.3344 4.5319 15.3331 4.54492 15.3254L8.82251 12.8168C8.92668 12.7529 9.0634 12.7478 9.17669 12.8142L13.4269 15.3063C13.4373 15.3114 13.4478 15.3178 13.4582 15.3242C13.4647 15.328 13.4712 15.3305 13.479 15.3318V15.3331C13.4842 15.3344 13.4907 15.3344 13.4972 15.3331L13.5025 15.3318C13.5181 15.328 13.5311 15.319 13.5389 15.3063C13.5467 15.2948 13.5493 15.2794 13.5454 15.2641L12.4334 10.4882C12.4195 10.4294 12.4223 10.368 12.4413 10.3106C12.4604 10.2532 12.495 10.202 12.5415 10.1625L16.2995 6.94358C16.3047 6.93974 16.3086 6.93336 16.3125 6.92697C16.3151 6.92186 16.3164 6.9142 16.3177 6.90526C16.319 6.89029 16.3149 6.87535 16.306 6.86311C16.2957 6.85232 16.2819 6.84552 16.2669 6.84395V6.84267L16.263 6.84139L11.3187 6.40582C11.1885 6.40454 11.0674 6.32918 11.014 6.20528Z" fill="#FA6C6C"/>
<path d="M9 1L12.4641 9.25H5.5359L9 1Z" fill="#FA6C6C"/>
<path d="M17.6278 6.89095L10.4061 12.1739L8.79934 5.43456L17.6278 6.89095Z" fill="#FA6C6C"/>
<path d="M11.3637 8.66882L9.11916 11.6466L8.0171 7.02405L11.3637 8.66882Z" fill="#FA6C6C"/>
<path d="M13.8358 16.5589L6.80316 11.0267L12.8608 7.66441L13.8358 16.5589Z" fill="#FA6C6C"/>
<path d="M4.05255 16.2293L6.09965 7.51883L11.7045 11.5914L4.05255 16.2293Z" fill="#FA6C6C"/>
<path d="M1.20961 6.81277L10.1209 6.00569L8.02579 12.6095L1.20961 6.81277Z" fill="#FA6C6C"/>
</g>
<defs>
<clipPath id="clip0_49_6">
<rect width="18" height="17" fill="white"/>
</clipPath>
</defs>
</svg>
