<svg width="18" height="18" viewBox="0 0 18 18" fill="none" xmlns="http://www.w3.org/2000/svg">
<path d="M0.687236 2.14331C0.305141 1.75226 0.30514 1.12769 0.687235 0.73665V0.73665C1.08204 0.332596 1.73202 0.332597 2.12683 0.73665L16.9007 15.8564C17.2828 16.2475 17.2828 16.872 16.9007 17.2631V17.2631C16.5058 17.6671 15.8559 17.6671 15.4611 17.2631L0.687236 2.14331Z" fill="black"/>
<path d="M15.8732 0.736932C16.268 0.332879 16.918 0.332878 17.3128 0.736932V0.736932C17.6949 1.12797 17.6949 1.75254 17.3128 2.14358L2.53894 17.2633C2.14413 17.6674 1.49415 17.6674 1.09934 17.2633V17.2633C0.717248 16.8723 0.717249 16.2477 1.09934 15.8567L15.8732 0.736932Z" fill="black"/>
</svg>
