<svg width="31" height="30" viewBox="0 0 31 30" fill="none" xmlns="http://www.w3.org/2000/svg">
<path d="M13.4333 3C7.73861 3 3.09998 7.489 3.09998 13C3.09998 18.511 7.73861 23 13.4333 23C15.9097 23 18.1839 22.149 19.9663 20.7363L26.136 26.707C26.2313 26.803 26.3453 26.8796 26.4715 26.9324C26.5977 26.9852 26.7335 27.0131 26.871 27.0144C27.0085 27.0158 27.1448 26.9906 27.2721 26.9403C27.3994 26.89 27.5151 26.8157 27.6123 26.7216C27.7095 26.6275 27.7863 26.5156 27.8383 26.3924C27.8903 26.2692 27.9163 26.1373 27.9149 26.0042C27.9135 25.8712 27.8847 25.7397 27.8301 25.6176C27.7756 25.4955 27.6964 25.3851 27.5972 25.293L21.4275 19.3223C22.8873 17.5974 23.7666 15.3965 23.7666 13C23.7666 7.489 19.128 3 13.4333 3ZM13.4333 5C18.0111 5 21.7 8.56988 21.7 13C21.7 17.4301 18.0111 21 13.4333 21C8.85552 21 5.16664 17.4301 5.16664 13C5.16664 8.56988 8.85552 5 13.4333 5Z" fill="#BDCCE3" fill-opacity="0.6"/>
</svg>
