<svg width="18" height="17" viewBox="0 0 18 17" fill="none" xmlns="http://www.w3.org/2000/svg">
<g clip-path="url(#clip0_18_110)">
<path d="M9.77186 0.513905L11.8798 5.39442L17.2382 5.8693V5.86785C17.4652 5.88667 17.6644 5.9967 17.8021 6.15885C17.8725 6.24108 17.9258 6.33621 17.959 6.43881C17.9922 6.54141 18.0046 6.64946 17.9955 6.75679V6.75824C17.9783 6.95428 17.8904 7.13769 17.7479 7.2751C17.7304 7.29393 17.7113 7.3113 17.6908 7.32723L13.6596 10.8063L14.8593 15.9937C14.9105 16.2152 14.8666 16.4367 14.7523 16.6148C14.6945 16.7064 14.6189 16.7859 14.5299 16.8485C14.4409 16.9111 14.3403 16.9557 14.2338 16.9797L14.2133 16.984C14.1093 17.0043 14.0038 17.0057 13.9027 16.9869V16.9884C13.7929 16.9695 13.6874 16.9275 13.5936 16.8667L13.5863 16.8624L9.00135 14.1536L4.37977 16.8841C4.28607 16.9398 4.18216 16.9767 4.07399 16.9926C3.96583 17.0085 3.85556 17.0031 3.74951 16.9767C3.64346 16.9504 3.54374 16.9035 3.45606 16.839C3.36839 16.7744 3.29451 16.6933 3.23865 16.6003C3.18299 16.5077 3.14783 16.4078 3.13172 16.3079C3.11707 16.2167 3.11854 16.124 3.13465 16.0343C3.13758 16.0154 3.14051 15.9952 3.14637 15.9763L4.34168 10.8077C2.98817 9.63935 1.59656 8.47677 0.265021 7.28958L0.253303 7.278C0.104621 7.13677 0.01475 6.9457 0.00134941 6.74232C-0.013299 6.53239 0.0540838 6.31811 0.206428 6.14582L0.224006 6.127L0.235724 6.11542C0.381408 5.9665 0.578686 5.87754 0.787971 5.8664H0.79676L6.12 5.39442L8.23524 0.500875C8.32459 0.292392 8.49305 0.138926 8.6908 0.0592976C8.88856 -0.0188833 9.11561 -0.0232267 9.32654 0.0650888C9.42762 0.107075 9.51697 0.167882 9.59022 0.24172C9.66785 0.318453 9.72791 0.408216 9.76893 0.505218L9.77186 0.513905ZM11.2645 5.8997L9.05994 0.797673C9.05696 0.790115 9.05248 0.783223 9.04676 0.777404C9.04087 0.771752 9.0339 0.767321 9.02625 0.764373C9.01819 0.760794 9.00945 0.758943 9.00062 0.758943C8.99178 0.758943 8.98304 0.760794 8.97498 0.764373C8.96033 0.770165 8.94715 0.781747 8.93983 0.79912L6.73524 5.8997C6.68104 6.02421 6.56238 6.11542 6.4159 6.12845L0.864142 6.6207C0.852424 6.62215 0.840705 6.6236 0.828986 6.6236C0.820197 6.6236 0.809943 6.62649 0.802619 6.63084C0.798224 6.63228 0.795295 6.63518 0.792365 6.63807L0.777717 6.65545C0.770392 6.66703 0.767463 6.68006 0.768928 6.69309C0.770392 6.70612 0.774787 6.71915 0.782111 6.72929C0.7909 6.73653 0.801154 6.74521 0.809943 6.7539L5.00379 10.3734C5.11658 10.4617 5.17518 10.6079 5.14149 10.7571L3.8949 16.1457L3.89051 16.166C3.88904 16.1747 3.88758 16.1834 3.88904 16.1906C3.89124 16.203 3.89696 16.2144 3.90552 16.2237C3.91408 16.2329 3.92514 16.2395 3.93738 16.2427C3.95496 16.2471 3.97254 16.2456 3.98719 16.237L8.7992 13.3935C8.91639 13.3211 9.0702 13.3153 9.19764 13.3906L13.9789 16.2152C13.9906 16.221 14.0023 16.2283 14.014 16.2355C14.0214 16.2398 14.0287 16.2427 14.0375 16.2442V16.2456C14.0433 16.2471 14.0507 16.2471 14.058 16.2456L14.0638 16.2442C14.0814 16.2398 14.0961 16.2297 14.1049 16.2152C14.1137 16.2022 14.1166 16.1848 14.1122 16.1675L12.8612 10.7542C12.8456 10.6875 12.8487 10.6179 12.8701 10.5529C12.8916 10.4878 12.9305 10.4298 12.9828 10.385L17.2103 6.73652C17.2162 6.73218 17.2206 6.72494 17.225 6.7177C17.2279 6.71191 17.2294 6.70323 17.2308 6.69309C17.2323 6.67613 17.2276 6.6592 17.2177 6.64531C17.2061 6.63309 17.1905 6.62538 17.1737 6.6236V6.62215C17.1722 6.62215 17.1693 6.62215 17.1693 6.6207L11.6073 6.127C11.4608 6.12556 11.3246 6.04014 11.2645 5.8997Z" fill="#BDCCE3"/>
</g>
<defs>
<clipPath id="clip0_18_110">
<rect width="18" height="17" fill="white"/>
</clipPath>
</defs>
</svg>
