<svg width="17" height="17" viewBox="0 0 17 17" fill="none" xmlns="http://www.w3.org/2000/svg">
<path d="M0.649055 2.02423C0.288187 1.65491 0.288188 1.06504 0.649056 0.695725V0.695725C1.02193 0.314119 1.63579 0.314119 2.00867 0.695725L15.9617 14.9755C16.3226 15.3448 16.3226 15.9347 15.9617 16.304V16.304C15.5889 16.6856 14.975 16.6856 14.6021 16.304L0.649055 2.02423Z" fill="#BDCCE3"/>
<path d="M14.9913 0.69599C15.3642 0.314384 15.9781 0.314385 16.3509 0.695991V0.695991C16.7118 1.06531 16.7118 1.65518 16.3509 2.0245L2.39788 16.3043C2.02501 16.6859 1.41114 16.6859 1.03827 16.3043V16.3043C0.677401 15.935 0.677401 15.3451 1.03827 14.9758L14.9913 0.69599Z" fill="#BDCCE3"/>
</svg>
